<?xml version="1.0" encoding="UTF-8"?>
<svg id="Calque_2" data-name="Calque 2" xmlns="http://www.w3.org/2000/svg" viewBox="0 0 271.98 224.69">
  <defs>
    <style>
      .cls-1, .cls-2 {
        stroke-width: 0px;
      }

      .cls-3 {
        fill: none;
        stroke: #000;
        stroke-miterlimit: 10;
        stroke-width: 6px;
      }

      .cls-2 {
        fill: #fff;
      }
    </style>
  </defs>
  <g id="Calque_1-2" data-name="Calque 1">
    <g>
      <rect class="cls-3" x="19.12" y="3" width="227.23" height="143.74"/>
      <rect class="cls-2" x="12.5" y="81.46" width="201.17" height="143.23"/>
      <g>
        <path class="cls-2" d="m190.39,2.01h19.08c-1.14.64-1.38,1.62-1.32,2.79.24,4.5.46,9,.64,13.51.53,12.79,1.03,25.57,1.58,38.36.07,1.65-.57,2.82-2.13,3.5-2.73,1.18-4.71,3.13-5.69,5.73-.96,2.55-1.76,5.23-2.1,7.91-.83,6.59.95,12.53,5.89,17.41,1.81,1.79,3.95,3.2,6.79,2.88,3.19-.36,5.3-2.36,7.11-4.61,4.52-5.62,5.21-12.04,3.88-18.74-.93-4.68-2.96-8.75-7.91-10.91-1.11-.48-1.58-1.48-1.53-2.71.18-4.4.29-8.8.46-13.2.52-13.05,1.09-26.09,1.55-39.14.03-.92-.63-1.86-.97-2.79h9.54c0,30.88,0,61.77,0,92.68-15.98,0-31.96,0-47.99,0,0-30.87,0-61.78,0-92.68h7.19c-.41.95-1.21,1.91-1.18,2.85.54,16.89,1.16,33.77,1.84,50.65.09,2.15-.73,3.53-2.47,4.87-3.48,2.67-5.52,6.07-4.93,10.55.37,2.82.51,5.67.82,8.5.53,4.83,1.12,9.65,1.69,14.48,1.43.48,1.55-.27,1.59-1.3.3-7.19.63-14.38.96-21.57.16,0,.31-.01.47-.02.38,7.66.76,15.31,1.14,22.87,1.56.45,1.68-.24,1.72-1.23.21-5.59.45-11.18.71-16.77.07-1.59.24-3.18.36-4.76.12,0,.24,0,.36,0,.37,7.62.75,15.24,1.12,22.78,1.2.29,1.7.09,1.73-.95.06-2.8.2-5.59.34-8.39.21-4.5.44-8.99.67-13.49.15,0,.3,0,.44,0,.37,7.62.75,15.25,1.12,22.82,1.1.28,1.59.18,1.7-.89.7-7,1.4-14.01,2.25-21,.63-5.18-1.21-9.2-5.69-12.2-1.23-.82-1.89-1.9-1.82-3.43.31-7.09.54-14.19.81-21.28.39-10.1.81-20.19,1.13-30.29.03-.93-.61-1.87-.94-2.81Z"/>
        <path class="cls-1" d="m215.73,2.01c.34.93,1,1.87.97,2.79-.46,13.05-1.03,26.09-1.55,39.14-.18,4.4-.28,8.8-.46,13.2-.05,1.23.42,2.22,1.53,2.71,4.96,2.16,6.98,6.23,7.91,10.91,1.33,6.7.64,13.11-3.88,18.74-1.81,2.25-3.92,4.24-7.11,4.61-2.84.32-4.98-1.09-6.79-2.88-4.94-4.88-6.72-10.82-5.89-17.41.34-2.68,1.14-5.36,2.1-7.91.98-2.6,2.96-4.55,5.69-5.73,1.56-.68,2.2-1.85,2.13-3.5-.55-12.79-1.05-25.57-1.58-38.36-.19-4.5-.4-9.01-.64-13.51-.06-1.17.18-2.16,1.32-2.79h6.25Z"/>
        <path class="cls-1" d="m190.39,2.01c.33.94.97,1.88.94,2.81-.32,10.1-.74,20.2-1.13,30.29-.27,7.09-.51,14.19-.81,21.28-.07,1.52.6,2.6,1.82,3.43,4.48,3,6.32,7.03,5.69,12.2-.85,6.99-1.55,13.99-2.25,21-.11,1.08-.6,1.17-1.7.89-.37-7.57-.75-15.2-1.12-22.82-.15,0-.3,0-.44,0-.22,4.5-.45,8.99-.67,13.49-.13,2.79-.27,5.59-.34,8.39-.02,1.05-.52,1.24-1.73.95-.37-7.54-.74-15.16-1.12-22.78-.12,0-.24,0-.36,0-.12,1.59-.28,3.17-.36,4.76-.26,5.59-.5,11.18-.71,16.77-.04.98-.16,1.67-1.72,1.23-.38-7.56-.76-15.21-1.14-22.87-.16,0-.31.01-.47.02-.32,7.19-.66,14.38-.96,21.57-.04,1.02-.17,1.78-1.59,1.3-.57-4.83-1.15-9.65-1.69-14.48-.31-2.83-.45-5.68-.82-8.5-.59-4.48,1.45-7.88,4.93-10.55,1.74-1.34,2.55-2.72,2.47-4.87-.69-16.88-1.3-33.76-1.84-50.65-.03-.94.77-1.9,1.18-2.85h5.92Z"/>
      </g>
      <g>
        <path class="cls-1" d="m16.98,81v-40.88h12.47c2.4,0,4.47.25,6.21.74,1.74.5,3.16,1.2,4.28,2.11,1.12.91,1.95,2.03,2.48,3.35.54,1.32.8,2.81.8,4.46,0,1.01-.15,1.98-.45,2.91-.3.93-.75,1.8-1.36,2.6-.61.8-1.37,1.51-2.29,2.14-.92.63-2,1.14-3.23,1.54,2.86.59,5.01,1.66,6.47,3.22s2.18,3.61,2.18,6.16c0,1.73-.3,3.31-.91,4.74-.61,1.43-1.5,2.65-2.67,3.68-1.17,1.03-2.61,1.82-4.31,2.38-1.7.56-3.64.84-5.82.84h-13.83Zm5.29-22.57h6.98c1.49,0,2.78-.17,3.87-.51,1.09-.34,2-.82,2.71-1.43.72-.61,1.25-1.35,1.6-2.21.34-.87.52-1.81.52-2.84,0-2.4-.69-4.16-2.07-5.28s-3.53-1.68-6.44-1.68h-7.17v13.95Zm0,3.94v14.24h8.46c1.51,0,2.81-.18,3.89-.54s1.97-.87,2.67-1.53,1.21-1.44,1.54-2.34c.33-.9.49-1.9.49-2.98,0-2.11-.71-3.78-2.14-5.01s-3.59-1.84-6.48-1.84h-8.43Z"/>
        <path class="cls-1" d="m88.59,60.57c0,3.06-.46,5.87-1.39,8.43-.93,2.56-2.24,4.76-3.93,6.6s-3.72,3.28-6.1,4.29c-2.37,1.02-5,1.53-7.87,1.53s-5.49-.51-7.86-1.53c-2.37-1.02-4.39-2.45-6.08-4.29s-3-4.05-3.93-6.6c-.93-2.56-1.39-5.37-1.39-8.43s.46-5.87,1.39-8.43c.93-2.56,2.24-4.76,3.93-6.62,1.69-1.85,3.72-3.3,6.08-4.32,2.36-1.03,4.98-1.54,7.86-1.54s5.5.51,7.87,1.54c2.37,1.03,4.41,2.47,6.1,4.32,1.69,1.85,3,4.06,3.93,6.62.93,2.56,1.39,5.37,1.39,8.43Zm-5.43,0c0-2.51-.33-4.76-.98-6.76-.66-2-1.58-3.68-2.78-5.06-1.2-1.38-2.66-2.44-4.36-3.18-1.71-.74-3.62-1.11-5.73-1.11s-3.99.37-5.7,1.11c-1.71.74-3.17,1.8-4.38,3.18-1.21,1.38-2.14,3.07-2.8,5.06-.65,2-.98,4.25-.98,6.76s.33,4.76.98,6.75c.66,1.99,1.59,3.67,2.8,5.05,1.21,1.38,2.67,2.43,4.38,3.17,1.71.73,3.61,1.1,5.7,1.1s4.02-.37,5.73-1.1c1.71-.73,3.16-1.79,4.36-3.17,1.2-1.38,2.13-3.06,2.78-5.05.65-1.99.98-4.24.98-6.75Z"/>
        <path class="cls-1" d="m99.6,40.3c.23.12.49.38.78.76l22.64,30.81c-.05-.49-.09-.97-.11-1.44-.02-.47-.03-.92-.03-1.36v-28.96h4.64v40.88h-2.67c-.42,0-.77-.08-1.05-.23-.28-.15-.56-.41-.83-.77l-22.62-30.78c.04.48.06.94.08,1.4.02.46.03.88.03,1.25v29.13h-4.64v-40.88h2.73c.47,0,.82.06,1.05.19Z"/>
        <path class="cls-1" d="m49.14,149.47h-4.09c-.47,0-.86-.12-1.15-.37-.29-.25-.51-.56-.65-.94l-3.66-9.87h-17.54l-3.66,9.87c-.13.34-.35.65-.65.91-.31.27-.69.4-1.15.4h-4.09l15.63-40.88h5.38l15.63,40.88Zm-25.62-15.18h14.6l-6.14-16.63c-.4-1.03-.79-2.31-1.17-3.85-.2.78-.4,1.5-.59,2.15-.19.66-.38,1.23-.56,1.73l-6.14,16.6Z"/>
        <path class="cls-1" d="m59.89,134.18v15.29h-5.26v-40.88h11.54c2.47,0,4.62.3,6.45.9,1.83.6,3.34,1.45,4.54,2.55,1.2,1.1,2.1,2.43,2.69,3.99.59,1.56.89,3.3.89,5.22s-.32,3.64-.96,5.22c-.64,1.58-1.57,2.94-2.8,4.08-1.23,1.14-2.75,2.03-4.57,2.67-1.82.64-3.9.96-6.25.96h-6.28Zm0-4.39h6.28c1.51,0,2.84-.21,4-.63,1.16-.42,2.12-1,2.91-1.75.78-.75,1.37-1.65,1.77-2.7.4-1.05.6-2.2.6-3.45,0-2.61-.77-4.64-2.31-6.1s-3.86-2.2-6.97-2.2h-6.28v16.83Z"/>
        <path class="cls-1" d="m93.23,134.18v15.29h-5.27v-40.88h11.54c2.47,0,4.62.3,6.45.9,1.83.6,3.34,1.45,4.54,2.55,1.2,1.1,2.1,2.43,2.69,3.99.59,1.56.89,3.3.89,5.22s-.32,3.64-.96,5.22c-.64,1.58-1.57,2.94-2.8,4.08-1.23,1.14-2.75,2.03-4.57,2.67-1.82.64-3.9.96-6.25.96h-6.27Zm0-4.39h6.27c1.51,0,2.84-.21,4-.63,1.15-.42,2.12-1,2.91-1.75s1.37-1.65,1.77-2.7c.4-1.05.6-2.2.6-3.45,0-2.61-.77-4.64-2.3-6.1-1.54-1.46-3.86-2.2-6.97-2.2h-6.27v16.83Z"/>
        <path class="cls-1" d="m144.84,108.59v4.51h-18.77v13.58h15.2v4.34h-15.2v13.95h18.77v4.51h-24.09v-40.88h24.09Z"/>
        <path class="cls-1" d="m179.08,108.59v4.65h-12.63v36.23h-5.29v-36.23h-12.69v-4.65h30.61Z"/>
        <path class="cls-1" d="m190.92,149.47h-5.29v-40.88h5.29v40.88Z"/>
        <path class="cls-1" d="m228.02,108.59v4.65h-12.63v36.23h-5.29v-36.23h-12.69v-4.65h30.61Z"/>
      </g>
      <line class="cls-3" x1="150.87" y1="3" x2="240.23" y2="3"/>
      <g>
        <path class="cls-1" d="m0,206.46v-25.47h7.01c1.39,0,2.59.14,3.61.43s1.86.71,2.52,1.27c.67.56,1.16,1.24,1.49,2.04.33.8.49,1.72.49,2.74,0,.67-.11,1.32-.34,1.94s-.55,1.2-.97,1.73c-.42.53-.94.99-1.56,1.38-.61.39-1.32.69-2.11.89,1.92.3,3.39.97,4.42,2,1.03,1.03,1.55,2.39,1.55,4.09,0,1.08-.18,2.05-.55,2.92s-.9,1.6-1.6,2.2c-.7.6-1.56,1.06-2.58,1.38-1.02.32-2.18.48-3.48.48H0Zm1.76-13.55h5.28c1.12,0,2.08-.15,2.88-.45s1.45-.7,1.96-1.19c.51-.49.89-1.05,1.13-1.67s.36-1.27.36-1.93c0-1.72-.52-3.01-1.56-3.9-1.04-.88-2.64-1.32-4.81-1.32H1.76v10.46Zm0,1.35v10.73h6.11c2.15,0,3.76-.48,4.85-1.45,1.09-.97,1.63-2.33,1.63-4.08,0-.8-.15-1.53-.44-2.17-.29-.64-.71-1.19-1.27-1.64-.55-.45-1.23-.79-2.03-1.04-.8-.24-1.72-.36-2.74-.36H1.76Z"/>
        <path class="cls-1" d="m40.4,206.46h-1.36c-.16,0-.29-.04-.4-.13-.1-.09-.18-.21-.24-.35l-2.88-7.4h-11.96l-2.86,7.4c-.05.13-.13.25-.24.34-.12.1-.25.14-.41.14h-1.34l9.97-25.47h1.76l9.97,25.47Zm-16.3-9.25h10.91l-4.97-12.87c-.08-.2-.16-.43-.24-.69-.08-.26-.16-.53-.24-.82-.08.29-.16.56-.24.82-.08.26-.16.5-.24.71l-4.97,12.85Z"/>
        <path class="cls-1" d="m46.53,194.94v11.52h-1.75v-25.47h6.21c2.81,0,4.91.57,6.3,1.7,1.39,1.13,2.08,2.8,2.08,4.99,0,.97-.16,1.86-.48,2.66-.32.8-.78,1.51-1.39,2.12-.6.61-1.33,1.1-2.18,1.49-.85.39-1.81.65-2.87.76.28.18.52.42.74.72l8.38,11.02h-1.53c-.18,0-.34-.04-.47-.11-.13-.07-.26-.19-.39-.36l-7.8-10.33c-.2-.26-.4-.45-.63-.56-.22-.11-.57-.16-1.04-.16h-3.18Zm0-1.37h4.23c1.08,0,2.05-.14,2.9-.41.85-.27,1.58-.66,2.17-1.16s1.04-1.11,1.35-1.82c.31-.71.46-1.5.46-2.39,0-1.81-.57-3.16-1.7-4.03s-2.79-1.31-4.96-1.31h-4.46v11.12Z"/>
        <path class="cls-1" d="m80.35,180.7c.77,0,1.5.14,2.19.41.69.28,1.29.65,1.8,1.12.51.47.92,1.01,1.22,1.63.3.62.47,1.26.49,1.93-.16.04-.3.07-.43.11-.26.06-.47.09-.62.09-.09,0-.18-.04-.26-.11-.08-.07-.14-.17-.17-.31-.08-.31-.22-.67-.41-1.08s-.46-.79-.79-1.15c-.33-.36-.75-.67-1.25-.92-.5-.25-1.09-.38-1.76-.38s-1.31.11-1.88.33c-.56.22-1.04.53-1.45.94s-.71.88-.94,1.43c-.22.55-.33,1.16-.33,1.82,0,.98.24,1.93.72,2.83.48.9,1.23,1.87,2.24,2.9l7.68,7.92c.52-.86.93-1.76,1.23-2.7.3-.94.5-1.84.59-2.72.02-.16.07-.28.14-.37.07-.09.17-.13.31-.13h.95c-.02,1.13-.23,2.29-.61,3.48-.38,1.19-.93,2.34-1.64,3.43l5.13,5.26h-1.53c-.21,0-.38-.02-.51-.07-.13-.05-.28-.16-.46-.32l-3.53-3.62c-.52.62-1.08,1.2-1.7,1.73-.62.53-1.29.98-2.01,1.36s-1.5.67-2.32.89-1.68.32-2.59.32-1.71-.15-2.55-.45c-.84-.3-1.59-.74-2.25-1.32-.66-.58-1.19-1.3-1.6-2.14s-.61-1.81-.61-2.89c0-.86.15-1.69.45-2.48.3-.79.71-1.51,1.22-2.16.52-.65,1.13-1.24,1.84-1.75.71-.52,1.48-.94,2.31-1.26-.81-.96-1.43-1.89-1.83-2.8s-.61-1.88-.61-2.91c0-.84.15-1.62.44-2.33.29-.71.71-1.33,1.25-1.86.54-.53,1.18-.94,1.94-1.24.75-.3,1.59-.45,2.52-.45Zm-7.85,19.13c0,.92.17,1.73.51,2.41.34.68.78,1.26,1.32,1.72.54.46,1.14.81,1.8,1.04.66.23,1.31.34,1.95.34.8,0,1.56-.1,2.28-.29.72-.19,1.39-.46,2.01-.8.62-.34,1.2-.75,1.72-1.21.52-.47,1-.98,1.44-1.55l-7.9-8.12c-.07-.06-.13-.13-.19-.2-.76.34-1.44.74-2.06,1.21-.61.47-1.13.99-1.56,1.56-.42.57-.75,1.19-.98,1.85s-.34,1.34-.34,2.05Z"/>
        <path class="cls-1" d="m103.07,206.46v-25.47h7.01c1.39,0,2.59.14,3.61.43s1.86.71,2.52,1.27c.67.56,1.16,1.24,1.49,2.04.33.8.49,1.72.49,2.74,0,.67-.11,1.32-.34,1.94-.22.62-.55,1.2-.97,1.73-.42.53-.94.99-1.56,1.38-.61.39-1.32.69-2.11.89,1.92.3,3.39.97,4.42,2s1.55,2.39,1.55,4.09c0,1.08-.18,2.05-.55,2.92s-.9,1.6-1.6,2.2c-.7.6-1.56,1.06-2.58,1.38-1.02.32-2.18.48-3.48.48h-7.9Zm1.76-13.55h5.28c1.12,0,2.09-.15,2.88-.45.8-.3,1.45-.7,1.96-1.19.51-.49.89-1.05,1.13-1.67.24-.62.36-1.27.36-1.93,0-1.72-.52-3.01-1.56-3.9-1.04-.88-2.64-1.32-4.81-1.32h-5.25v10.46Zm0,1.35v10.73h6.11c2.15,0,3.76-.48,4.85-1.45s1.64-2.33,1.64-4.08c0-.8-.15-1.53-.44-2.17s-.71-1.19-1.26-1.64c-.55-.45-1.23-.79-2.03-1.04-.8-.24-1.72-.36-2.74-.36h-6.13Z"/>
        <path class="cls-1" d="m127.41,194.94v11.52h-1.76v-25.47h6.21c2.81,0,4.91.57,6.3,1.7,1.39,1.13,2.08,2.8,2.08,4.99,0,.97-.16,1.86-.48,2.66-.32.8-.78,1.51-1.39,2.12-.6.61-1.33,1.1-2.18,1.49s-1.81.65-2.87.76c.28.18.52.42.74.72l8.38,11.02h-1.53c-.18,0-.34-.04-.47-.11-.13-.07-.26-.19-.39-.36l-7.8-10.33c-.2-.26-.4-.45-.63-.56-.22-.11-.57-.16-1.04-.16h-3.18Zm0-1.37h4.23c1.08,0,2.05-.14,2.9-.41.86-.27,1.58-.66,2.17-1.16s1.04-1.11,1.35-1.82c.31-.71.46-1.5.46-2.39,0-1.81-.57-3.16-1.7-4.03-1.14-.88-2.79-1.31-4.96-1.31h-4.46v11.12Z"/>
        <path class="cls-1" d="m165.19,206.46h-1.36c-.16,0-.29-.04-.4-.13-.1-.09-.18-.21-.24-.35l-2.88-7.4h-11.96l-2.86,7.4c-.05.13-.13.25-.24.34-.11.1-.25.14-.41.14h-1.34l9.97-25.47h1.76l9.97,25.47Zm-16.3-9.25h10.91l-4.97-12.87c-.08-.2-.16-.43-.24-.69-.08-.26-.16-.53-.24-.82-.08.29-.16.56-.24.82-.08.26-.16.5-.24.71l-4.97,12.85Z"/>
        <path class="cls-1" d="m180.84,184.09c-.1.2-.25.31-.45.31-.15,0-.34-.11-.58-.33-.24-.22-.56-.47-.96-.74-.4-.27-.91-.52-1.51-.75-.6-.23-1.35-.34-2.24-.34s-1.67.13-2.34.4c-.67.26-1.24.62-1.69,1.08s-.8.98-1.04,1.58c-.24.6-.35,1.23-.35,1.89,0,.86.17,1.58.53,2.14.35.56.81,1.04,1.39,1.44.57.4,1.23.73,1.96,1,.73.27,1.48.54,2.25.8.77.26,1.52.56,2.25.87.73.32,1.38.72,1.96,1.2.58.48,1.04,1.07,1.39,1.77.35.7.53,1.58.53,2.62s-.17,2.07-.53,3.01c-.35.94-.86,1.76-1.52,2.46-.67.7-1.48,1.25-2.44,1.65-.96.4-2.07.6-3.3.6-1.61,0-2.99-.3-4.15-.89-1.16-.59-2.17-1.41-3.05-2.44l.48-.79c.14-.18.3-.27.48-.27.1,0,.24.07.4.22.16.14.36.32.59.53.23.21.5.44.83.68.32.25.7.47,1.12.68s.91.39,1.46.53,1.18.22,1.88.22c.97,0,1.83-.15,2.59-.46.76-.31,1.4-.72,1.92-1.25.52-.53.92-1.15,1.2-1.88.28-.73.41-1.5.41-2.33,0-.9-.17-1.64-.53-2.22s-.81-1.07-1.39-1.46-1.23-.72-1.96-.98c-.73-.26-1.48-.52-2.25-.77-.77-.25-1.52-.53-2.25-.85-.73-.31-1.38-.71-1.96-1.2-.57-.49-1.04-1.09-1.39-1.82-.35-.73-.53-1.63-.53-2.73,0-.85.16-1.67.47-2.47.31-.79.76-1.49,1.36-2.1.6-.61,1.34-1.09,2.21-1.46s1.88-.55,3.01-.55c1.26,0,2.4.21,3.4.63,1.01.42,1.92,1.06,2.75,1.93l-.41.83Z"/>
        <path class="cls-1" d="m198.83,184.09c-.1.2-.25.31-.45.31-.15,0-.34-.11-.58-.33-.24-.22-.56-.47-.96-.74-.4-.27-.91-.52-1.51-.75-.6-.23-1.35-.34-2.24-.34s-1.67.13-2.34.4c-.67.26-1.24.62-1.69,1.08s-.8.98-1.04,1.58c-.24.6-.35,1.23-.35,1.89,0,.86.17,1.58.53,2.14.35.56.81,1.04,1.39,1.44.57.4,1.23.73,1.96,1,.73.27,1.48.54,2.25.8.77.26,1.52.56,2.25.87.73.32,1.38.72,1.96,1.2.58.48,1.04,1.07,1.39,1.77.35.7.53,1.58.53,2.62s-.17,2.07-.53,3.01c-.35.94-.86,1.76-1.52,2.46-.67.7-1.48,1.25-2.44,1.65-.96.4-2.07.6-3.3.6-1.61,0-2.99-.3-4.15-.89-1.16-.59-2.17-1.41-3.05-2.44l.48-.79c.14-.18.3-.27.48-.27.1,0,.24.07.4.22.16.14.36.32.59.53.23.21.5.44.83.68.32.25.7.47,1.12.68s.91.39,1.46.53,1.18.22,1.88.22c.97,0,1.83-.15,2.59-.46.76-.31,1.4-.72,1.92-1.25.52-.53.92-1.15,1.2-1.88.28-.73.41-1.5.41-2.33,0-.9-.17-1.64-.53-2.22s-.81-1.07-1.39-1.46-1.23-.72-1.96-.98c-.73-.26-1.48-.52-2.25-.77-.77-.25-1.52-.53-2.25-.85-.73-.31-1.38-.71-1.96-1.2-.57-.49-1.04-1.09-1.39-1.82-.35-.73-.53-1.63-.53-2.73,0-.85.16-1.67.47-2.47.31-.79.76-1.49,1.36-2.1.6-.61,1.34-1.09,2.21-1.46s1.88-.55,3.01-.55c1.26,0,2.4.21,3.4.63,1.01.42,1.92,1.06,2.75,1.93l-.41.83Z"/>
        <path class="cls-1" d="m219.62,180.99v1.53h-12.82v10.3h10.67v1.49h-10.67v10.62h12.82v1.53h-14.6v-25.47h14.6Z"/>
        <path class="cls-1" d="m227.64,194.94v11.52h-1.76v-25.47h6.21c2.81,0,4.91.57,6.3,1.7,1.39,1.13,2.08,2.8,2.08,4.99,0,.97-.16,1.86-.48,2.66-.32.8-.78,1.51-1.39,2.12-.6.61-1.33,1.1-2.18,1.49s-1.81.65-2.87.76c.28.18.52.42.74.72l8.38,11.02h-1.53c-.18,0-.34-.04-.47-.11-.13-.07-.26-.19-.39-.36l-7.8-10.33c-.2-.26-.4-.45-.63-.56-.22-.11-.57-.16-1.04-.16h-3.18Zm0-1.37h4.23c1.08,0,2.05-.14,2.9-.41.86-.27,1.58-.66,2.17-1.16s1.04-1.11,1.35-1.82c.31-.71.46-1.5.46-2.39,0-1.81-.57-3.16-1.7-4.03-1.14-.88-2.79-1.31-4.96-1.31h-4.46v11.12Z"/>
        <path class="cls-1" d="m249.5,206.46h-1.77v-25.47h1.77v25.47Z"/>
        <path class="cls-1" d="m271.98,180.99v1.53h-12.82v10.3h10.67v1.49h-10.67v10.62h12.82v1.53h-14.6v-25.47h14.6Z"/>
      </g>
    </g>
  </g>
</svg>