<?xml version="1.0" encoding="UTF-8"?>
<svg id="Calque_2" data-name="Calque 2" xmlns="http://www.w3.org/2000/svg" viewBox="0 0 299.7 300.12">
  <defs>
    <style>
      .cls-1 {
        fill: #fff;
        stroke-width: 0px;
      }
    </style>
  </defs>
  <g id="Calque_1-2" data-name="Calque 1">
    <path class="cls-1" d="m160.48,298.98H23.41S-.17,306.15.58,274.99s-.02-246.41-.02-246.41C.56,28.58-7.07-7.43,33.9,1.39l238.6.91s31.39-8.19,26.02,30.12l.62,238.99s7.21,32.83-30.02,28.29l-63.27.43v-115.25h40.87l6.31-45.98-43.86-.77v-36s1.88-9.96,18.81-11.49,24.88-.77,24.88-.77l.17-42.35h-40.92s-30.78-1.01-44.57,27.95c0,0-11.16-.15-4.43,61.89l-43.03.77v46.75h41.41l-1.02,114.1Z"/>
  </g>
</svg>