<?xml version="1.0" encoding="UTF-8"?>
<svg id="Calque_2" data-name="Calque 2" xmlns="http://www.w3.org/2000/svg" viewBox="0 0 118.66 52.08">
  <defs>
    <style>
      .cls-1 {
        fill: none;
        stroke-width: 3px;
      }

      .cls-1, .cls-2 {
        stroke: #ec9730;
        stroke-miterlimit: 10;
      }

      .cls-2 {
        fill: #ec9730;
      }
    </style>
  </defs>
  <g id="Calque_1-2" data-name="Calque 1">
    <g>
      <path class="cls-1" d="m62,40.69s20.42-.16,23.74,0c3.33.15,3.05-2.69,3.05-2.69,0,0-.33-32-.03-33.95s-1.81-2.55-1.81-2.55c0,0-43.1.15-46.28,0-3.18-.15-2.42,3.29-2.42,3.29l-.08,33.14s-.07,2.76,3.25,2.76c3.33,0,5.97,0,5.97,0"/>
      <circle class="cls-1" cx="54.39" cy="43.03" r="7.55"/>
      <circle class="cls-1" cx="102.95" cy="43.03" r="7.55"/>
      <path class="cls-1" d="m110.51,40.69s1.42.15,4.18,0c2.76-.15,2.47-2.76,2.47-2.76,0,0-.17-6.9-.01-8.74s-1.23-3.68-1.23-3.68l-8.59-11.8c-.46-2.3-3.83-2.15-3.83-2.15h-14.69v27.84s.89,1.39,2.72,1.35c1.83-.03,3.87-.07,3.87-.07l-3.87.07c-2.15.53-2.73-2.77-2.73-2.77"/>
      <line class="cls-1" x1="10.58" y1="12.33" x2="32.05" y2="12.33"/>
      <line class="cls-1" x1="0" y1="21.6" x2="32.05" y2="21.76"/>
      <line class="cls-1" x1="10.58" y1="31.8" x2="32.05" y2="31.8"/>
      <circle class="cls-2" cx="54.39" cy="43.03" r="1.92"/>
      <circle class="cls-2" cx="103.3" cy="43.03" r="2.26"/>
      <path class="cls-1" d="m116.22,29.96s-11.65.15-12.92,0-1.95-.77-3.03-1.53-2.3-3.99-1.23-7.33c1.07-3.34,4.25-3.41,4.25-3.41h6.92"/>
    </g>
  </g>
</svg>