<?xml version="1.0" encoding="UTF-8"?>
<svg id="Calque_2" data-name="Calque 2" xmlns="http://www.w3.org/2000/svg" viewBox="0 0 73.37 65.16">
  <defs>
    <style>
      .cls-1 {
        fill: none;
        stroke: #ecb14c;
      }

      .cls-1, .cls-2 {
        stroke-miterlimit: 10;
      }

      .cls-2 {
        fill: #ec9730;
        stroke: #ec9730;
      }
    </style>
  </defs>
  <g id="Calque_1-2" data-name="Calque 1">
    <g>
      <path class="cls-2" d="m.52,29.93v31.33s-.47,4.36,3.53,3.06l65.96.24s2.59.7,2.83-1.65v-31.8s.35-2.24-1.77-.59-34.28,21.08-34.28,21.08c0,0-37.09-22.18-34.03-21.69,0,0-2.24-1.75-2.24.02Z"/>
      <path class="cls-2" d="m8,31.28v-15.72s-.18-2.12,2.83-1.94,51.94-.01,51.94-.01c0,0,3.18-.17,2.47,3.01l.1,14.66,6.43-4.24s2.47-1.41,0-2.12l-3.89-2.48-.35-6.53s1.94-2.83-4.42-4.95h-10.25L39.09,1.6s-3-2.47-4.06,0l-14.84,10.07h-10.07s-4.06-.22-4.42,4.22c-.35,4.44,0,6.2,0,6.2l-3.71,2.65s-2.47.88,0,2.47c2.47,1.59,6.01,4.06,6.01,4.06Z"/>
      <polygon class="cls-2" points="36.88 .5 23.19 11.67 35.2 .5 36.88 .5"/>
      <polyline class="cls-2" points="37.91 .5 39.22 1.42 52.87 10.96 20.19 11.67 32.93 2.19 34.55 .99 35.2 .5"/>
      <path class="cls-1" d="m62.17,11.52s5.25-.69,5.06,4.24"/>
      <line class="cls-1" x1="65.6" y1="20.16" x2="65.45" y2="12.03"/>
    </g>
  </g>
</svg>