<?xml version="1.0" encoding="UTF-8"?>
<svg id="Calque_2" data-name="Calque 2" xmlns="http://www.w3.org/2000/svg" viewBox="0 0 51.19 54.99">
  <defs>
    <style>
      .cls-1 {
        fill: #ec9730;
        stroke: #ec9730;
        stroke-miterlimit: 10;
      }
    </style>
  </defs>
  <g id="Calque_1-2" data-name="Calque 1">
    <path class="cls-1" d="m10.78.67s2.19-1.09,4.38,2.33c0,0,2.05,1.64,4.52,6.98,0,0,2.46,4.24-1.23,6.84l-4.52,3.7s-1.23,2.6.41,5.89,5.2,7.25,5.2,7.25c0,0,5.75,6.84,9.17,6.84s4.38-2.19,4.38-2.19l2.74-2.33s2.19-2.6,6.57.14c4.38,2.74,7.25,6.16,7.25,6.16,0,0,2.87,3.56-.96,5.89l-3.28,3.28s-7.25,6.84-20.67,0C11.33,44.6,2.57,26.67,2.57,26.67c0,0-4.65-9.03,0-18.48,0,0,2.87-5.47,8.21-7.53Z"/>
  </g>
</svg>